<?xml version="1.0" encoding="UTF-8" standalone="no"?>
<svg width="46px" height="46px" viewBox="0 0 46 46" version="1.1" xmlns="http://www.w3.org/2000/svg" xmlns:xlink="http://www.w3.org/1999/xlink">
    <!-- Generator: Sketch 47.1 (45422) - http://www.bohemiancoding.com/sketch -->
    <title>Facebook</title>
    <desc>Created with Sketch.</desc>
    <defs></defs>
    <g id="Landing-Page" stroke="none" stroke-width="1" fill="none" fill-rule="evenodd">
        <g id="Homepage-Desktop" transform="translate(-958.000000, -2331.000000)" fill="#000000">
            <g id="Footer" transform="translate(0.000000, 2214.000000)">
                <g id="Wrapper" transform="translate(865.000000, 70.000000)">
                    <path d="M115.9006,91.3001 L115.6396,91.3001 C103.9486,91.2281 94.5286,81.6921 94.6006,70.0001 C94.6006,58.2201 104.1206,48.6551 115.9006,48.6001 C127.6926,48.6001 137.2506,58.1581 137.2506,69.9501 C137.2506,81.7411 127.6926,91.3001 115.9006,91.3001 M115.9006,47.0001 C128.5476,47.0001 138.8006,57.2531 138.8006,69.9001 C138.8006,82.5471 128.5476,92.8001 115.9006,92.8001 C109.7696,92.8391 103.8856,90.3851 99.6006,86.0001 C95.3326,81.7351 92.9546,75.9341 93.0006,69.9001 C93.0006,57.2531 103.2536,47.0001 115.9006,47.0001 Z M118.7009,62.4998 C119.3099,62.5268 119.9149,62.6278 120.5009,62.7998 L121.0999,59.3998 C119.7599,59.0738 118.3799,58.9388 117.0009,58.9998 C115.6229,58.9468 114.3109,59.5848 113.5009,60.6998 C112.9269,61.7358 112.6829,62.9218 112.8009,64.0998 L112.8009,66.2998 L110.5009,66.2998 L110.5009,69.5998 L112.8009,69.5998 L112.8009,81.0998 L116.9009,81.0998 L116.9009,69.5998 L120.3009,69.5998 L120.5999,66.2998 L117.0009,66.2998 L117.0009,63.6998 C117.0009,62.7998 117.8009,62.4998 118.7009,62.4998 Z" id="Facebook"></path>
                </g>
            </g>
        </g>
    </g>
</svg>